# xmcd
#
# Track frame offsets:
#	150
#	22493
#	42672
#	71553
#	85556
#	106183
#	126441
#	141954
#	160542
#	178674
#	194896
#	207330
#	224727
#	238502
#	257445
#	272775
#
# Disc length: 3835 seconds
#
# Revision: 0
# Processed by: cddbd v1.5.2PL0 Copyright (c) Steve Scherf et al.
# Submitted via: audiograbber 1.83.01
#
DISCID=fa0ef910
DTITLE=AWEK - Rich and Famous
DYEAR=2011
DGENRE=Blues
TTITLE0=She turns me on
TTITLE1=I appreciate
TTITLE2=I wanna be your man
TTITLE3=A place where I can hide
TTITLE4=Gone too long
TTITLE5=It hurts me
TTITLE6=My boss
TTITLE7=Sound check
TTITLE8=Tell me now
TTITLE9=I dont mind
TTITLE10=Give me time
TTITLE11=Drive an automatic
TTITLE12=Im not in love
TTITLE13=Three seconds
TTITLE14=Papa loonies blues
TTITLE15=Quit that job
EXTD=
EXTT0=
EXTT1=
EXTT2=
EXTT3=
EXTT4=
EXTT5=
EXTT6=
EXTT7=
EXTT8=
EXTT9=
EXTT10=
EXTT11=
EXTT12=
EXTT13=
EXTT14=
EXTT15=
PLAYORDER=
